ISO-10303-21;
HEADER;
FILE_DESCRIPTION(('CATIA V5 STEP','CAx-IF Rec.Pracs.--- Model Styling and Organization---1.2---2011-12-15'),'2;1');

FILE_NAME('I:\\isr\\design\\admin8\\users\\raheeb_a\\3260083 L.stp','2016-07-06T11:52:03+00:00',('none'),('none'),'CATIA Version 5 Release 21 SP 5 (IN-10)','CATIA V5 STEP AP214','none');

FILE_SCHEMA(('AUTOMOTIVE_DESIGN { 1 0 10303 214 1 1 1 1 }'));

ENDSEC;
DATA;
#5=PRODUCT('DCN 190-057-25A-3D','','',(#2)) ;
#2=PRODUCT_CONTEXT(' ',#1,'mechanical') ;
#1=APPLICATION_CONTEXT('automotive design') ;
#10=PRODUCT_DEFINITION('',' ',#6,#3) ;
#3=PRODUCT_DEFINITION_CONTEXT('part definition',#1,' ') ;
#11=PRODUCT_DEFINITION_SHAPE(' ',' ',#10) ;
#1030=MECHANICAL_DESIGN_GEOMETRIC_PRESENTATION_REPRESENTATION(' ',(#30,#601),#17) ;
#1031=MECHANICAL_DESIGN_GEOMETRIC_PRESENTATION_REPRESENTATION(' ',(#1008),#17) ;
#20=SHAPE_REPRESENTATION(' ',(#19),#17) ;
#19=AXIS2_PLACEMENT_3D(' ',#18,$,$) ;
#35=AXIS2_PLACEMENT_3D('Cone Axis2P3D',#32,#33,#34) ;
#48=AXIS2_PLACEMENT_3D('Circle Axis2P3D',#46,#47,$) ;
#62=AXIS2_PLACEMENT_3D('Circle Axis2P3D',#60,#61,$) ;
#74=AXIS2_PLACEMENT_3D('Circle Axis2P3D',#72,#73,$) ;
#79=AXIS2_PLACEMENT_3D('Circle Axis2P3D',#77,#78,$) ;
#92=AXIS2_PLACEMENT_3D('Cylinder Axis2P3D',#89,#90,#91) ;
#103=AXIS2_PLACEMENT_3D('Circle Axis2P3D',#101,#102,$) ;
#122=AXIS2_PLACEMENT_3D('Circle Axis2P3D',#120,#121,$) ;
#135=AXIS2_PLACEMENT_3D('Cone Axis2P3D',#132,#133,#134) ;
#146=AXIS2_PLACEMENT_3D('Circle Axis2P3D',#144,#145,$) ;
#165=AXIS2_PLACEMENT_3D('Circle Axis2P3D',#163,#164,$) ;
#178=AXIS2_PLACEMENT_3D('Cylinder Axis2P3D',#175,#176,#177) ;
#189=AXIS2_PLACEMENT_3D('Circle Axis2P3D',#187,#188,$) ;
#208=AXIS2_PLACEMENT_3D('Circle Axis2P3D',#206,#207,$) ;
#221=AXIS2_PLACEMENT_3D('Torus Axis2P3D',#218,#219,#220) ;
#225=AXIS2_PLACEMENT_3D('Circle Axis2P3D',#223,#224,$) ;
#232=AXIS2_PLACEMENT_3D('Circle Axis2P3D',#230,#231,$) ;
#239=AXIS2_PLACEMENT_3D('Circle Axis2P3D',#237,#238,$) ;
#251=AXIS2_PLACEMENT_3D('Circle Axis2P3D',#249,#250,$) ;
#264=AXIS2_PLACEMENT_3D('Cone Axis2P3D',#261,#262,#263) ;
#275=AXIS2_PLACEMENT_3D('Circle Axis2P3D',#273,#274,$) ;
#294=AXIS2_PLACEMENT_3D('Circle Axis2P3D',#292,#293,$) ;
#307=AXIS2_PLACEMENT_3D('Cone Axis2P3D',#304,#305,#306) ;
#320=AXIS2_PLACEMENT_3D('Circle Axis2P3D',#318,#319,$) ;
#334=AXIS2_PLACEMENT_3D('Circle Axis2P3D',#332,#333,$) ;
#346=AXIS2_PLACEMENT_3D('Circle Axis2P3D',#344,#345,$) ;
#351=AXIS2_PLACEMENT_3D('Circle Axis2P3D',#349,#350,$) ;
#364=AXIS2_PLACEMENT_3D('Cylinder Axis2P3D',#361,#362,#363) ;
#375=AXIS2_PLACEMENT_3D('Circle Axis2P3D',#373,#374,$) ;
#394=AXIS2_PLACEMENT_3D('Circle Axis2P3D',#392,#393,$) ;
#407=AXIS2_PLACEMENT_3D('Cone Axis2P3D',#404,#405,#406) ;
#418=AXIS2_PLACEMENT_3D('Circle Axis2P3D',#416,#417,$) ;
#437=AXIS2_PLACEMENT_3D('Circle Axis2P3D',#435,#436,$) ;
#450=AXIS2_PLACEMENT_3D('Torus Axis2P3D',#447,#448,#449) ;
#454=AXIS2_PLACEMENT_3D('Circle Axis2P3D',#452,#453,$) ;
#461=AXIS2_PLACEMENT_3D('Circle Axis2P3D',#459,#460,$) ;
#468=AXIS2_PLACEMENT_3D('Circle Axis2P3D',#466,#467,$) ;
#480=AXIS2_PLACEMENT_3D('Circle Axis2P3D',#478,#479,$) ;
#493=AXIS2_PLACEMENT_3D('Plane Axis2P3D',#490,#491,#492) ;
#503=AXIS2_PLACEMENT_3D('Plane Axis2P3D',#500,#501,#502) ;
#517=AXIS2_PLACEMENT_3D('Plane Axis2P3D',#514,#515,#516) ;
#565=AXIS2_PLACEMENT_3D('Cylinder Axis2P3D',#562,#563,#564) ;
#606=AXIS2_PLACEMENT_3D('Cone Axis2P3D',#603,#604,#605) ;
#610=AXIS2_PLACEMENT_3D('Circle Axis2P3D',#608,#609,$) ;
#626=AXIS2_PLACEMENT_3D('Circle Axis2P3D',#624,#625,$) ;
#645=AXIS2_PLACEMENT_3D('Circle Axis2P3D',#643,#644,$) ;
#650=AXIS2_PLACEMENT_3D('Circle Axis2P3D',#648,#649,$) ;
#663=AXIS2_PLACEMENT_3D('Torus Axis2P3D',#660,#661,#662) ;
#667=AXIS2_PLACEMENT_3D('Circle Axis2P3D',#665,#666,$) ;
#674=AXIS2_PLACEMENT_3D('Circle Axis2P3D',#672,#673,$) ;
#681=AXIS2_PLACEMENT_3D('Circle Axis2P3D',#679,#680,$) ;
#693=AXIS2_PLACEMENT_3D('Circle Axis2P3D',#691,#692,$) ;
#706=AXIS2_PLACEMENT_3D('Cone Axis2P3D',#703,#704,#705) ;
#717=AXIS2_PLACEMENT_3D('Circle Axis2P3D',#715,#716,$) ;
#736=AXIS2_PLACEMENT_3D('Circle Axis2P3D',#734,#735,$) ;
#775=AXIS2_PLACEMENT_3D('Circle Axis2P3D',#773,#774,$) ;
#814=AXIS2_PLACEMENT_3D('Circle Axis2P3D',#812,#813,$) ;
#827=AXIS2_PLACEMENT_3D('Cylinder Axis2P3D',#824,#825,#826) ;
#838=AXIS2_PLACEMENT_3D('Circle Axis2P3D',#836,#837,$) ;
#857=AXIS2_PLACEMENT_3D('Circle Axis2P3D',#855,#856,$) ;
#870=AXIS2_PLACEMENT_3D('Cone Axis2P3D',#867,#868,#869) ;
#881=AXIS2_PLACEMENT_3D('Circle Axis2P3D',#879,#880,$) ;
#900=AXIS2_PLACEMENT_3D('Circle Axis2P3D',#898,#899,$) ;
#913=AXIS2_PLACEMENT_3D('Plane Axis2P3D',#910,#911,#912) ;
#923=AXIS2_PLACEMENT_3D('Plane Axis2P3D',#920,#921,#922) ;
#981=AXIS2_PLACEMENT_3D('Circle Axis2P3D',#979,#980,$) ;
#1015=AXIS2_PLACEMENT_3D('CIP',#1012,#1013,#1014) ;
#1021=AXIS2_PLACEMENT_3D('PCS',#1018,#1019,#1020) ;
#1025=AXIS2_PLACEMENT_3D('MCS',#1022,#1023,#1024) ;
#1029=AXIS2_PLACEMENT_3D('CSW',#1026,#1027,#1028) ;
#18=CARTESIAN_POINT(' ',(0.,0.,0.)) ;
#32=CARTESIAN_POINT('Axis2P3D Location',(0.,0.,143.)) ;
#37=CARTESIAN_POINT('Line Origine',(-3.44389053683,-11.4951997795,142.5)) ;
#41=CARTESIAN_POINT('Vertex',(-3.3003950978,-11.016233122,143.)) ;
#43=CARTESIAN_POINT('Vertex',(-3.58738597587,-11.974166437,142.)) ;
#46=CARTESIAN_POINT('Axis2P3D Location',(0.,0.,142.)) ;
#50=CARTESIAN_POINT('Vertex',(3.58738597587,11.974166437,142.)) ;
#53=CARTESIAN_POINT('Line Origine',(3.44389053683,11.4951997795,142.5)) ;
#57=CARTESIAN_POINT('Vertex',(3.3003950978,11.016233122,143.)) ;
#60=CARTESIAN_POINT('Axis2P3D Location',(0.,0.,143.)) ;
#72=CARTESIAN_POINT('Axis2P3D Location',(0.,0.,142.)) ;
#77=CARTESIAN_POINT('Axis2P3D Location',(0.,0.,143.)) ;
#89=CARTESIAN_POINT('Axis2P3D Location',(0.,0.,71.5)) ;
#94=CARTESIAN_POINT('Line Origine',(-3.58738597587,-11.974166437,116.)) ;
#98=CARTESIAN_POINT('Vertex',(-3.58738597587,-11.974166437,90.)) ;
#101=CARTESIAN_POINT('Axis2P3D Location',(0.,0.,90.)) ;
#105=CARTESIAN_POINT('Vertex',(3.58738597587,11.974166437,90.)) ;
#108=CARTESIAN_POINT('Line Origine',(3.58738597587,11.974166437,116.)) ;
#120=CARTESIAN_POINT('Axis2P3D Location',(0.,0.,90.)) ;
#132=CARTESIAN_POINT('Axis2P3D Location',(0.,0.,89.0383829032)) ;
#137=CARTESIAN_POINT('Line Origine',(-3.53716257221,-11.8065281068,89.5191914516)) ;
#141=CARTESIAN_POINT('Vertex',(-3.48693916854,-11.6388897767,89.0383829032)) ;
#144=CARTESIAN_POINT('Axis2P3D Location',(0.,0.,89.0383829032)) ;
#148=CARTESIAN_POINT('Vertex',(3.48693916854,11.6388897767,89.0383829032)) ;
#151=CARTESIAN_POINT('Line Origine',(3.53716257221,11.8065281068,89.5191914516)) ;
#163=CARTESIAN_POINT('Axis2P3D Location',(0.,0.,89.0383829032)) ;
#175=CARTESIAN_POINT('Axis2P3D Location',(0.,0.,71.5)) ;
#180=CARTESIAN_POINT('Line Origine',(-3.48693916854,-11.6388897767,88.2441914516)) ;
#184=CARTESIAN_POINT('Vertex',(-3.48693916854,-11.6388897767,87.45)) ;
#187=CARTESIAN_POINT('Axis2P3D Location',(0.,0.,87.45)) ;
#191=CARTESIAN_POINT('Vertex',(3.48693916854,11.6388897767,87.45)) ;
#194=CARTESIAN_POINT('Line Origine',(3.48693916854,11.6388897767,88.2441914516)) ;
#206=CARTESIAN_POINT('Axis2P3D Location',(0.,0.,87.45)) ;
#218=CARTESIAN_POINT('Axis2P3D Location',(0.,0.,87.45)) ;
#223=CARTESIAN_POINT('Axis2P3D Location',(-3.716531871,-12.4052364287,87.45)) ;
#227=CARTESIAN_POINT('Vertex',(-3.7950572,-12.6673424204,86.6982459034)) ;
#230=CARTESIAN_POINT('Axis2P3D Location',(0.,0.,86.6982459034)) ;
#234=CARTESIAN_POINT('Vertex',(3.7950572,12.6673424204,86.6982459034)) ;
#237=CARTESIAN_POINT('Axis2P3D Location',(3.716531871,12.4052364287,87.45)) ;
#249=CARTESIAN_POINT('Axis2P3D Location',(0.,0.,86.6982459034)) ;
#261=CARTESIAN_POINT('Axis2P3D Location',(0.,0.,86.6982459034)) ;
#266=CARTESIAN_POINT('Line Origine',(-3.914023897,-13.0644357469,86.8491229517)) ;
#270=CARTESIAN_POINT('Vertex',(-4.032990594,-13.4615290733,87.)) ;
#273=CARTESIAN_POINT('Axis2P3D Location',(0.,0.,87.)) ;
#277=CARTESIAN_POINT('Vertex',(4.032990594,13.4615290733,87.)) ;
#280=CARTESIAN_POINT('Line Origine',(3.914023897,13.0644357469,86.8491229517)) ;
#292=CARTESIAN_POINT('Axis2P3D Location',(0.,0.,87.)) ;
#304=CARTESIAN_POINT('Axis2P3D Location',(0.,0.,87.)) ;
#309=CARTESIAN_POINT('Line Origine',(-4.5488054174,-15.1832430421,86.85)) ;
#313=CARTESIAN_POINT('Vertex',(-4.50575678569,-15.0395530448,87.)) ;
#315=CARTESIAN_POINT('Vertex',(-4.59185404911,-15.3269330393,86.7)) ;
#318=CARTESIAN_POINT('Axis2P3D Location',(0.,0.,86.7)) ;
#322=CARTESIAN_POINT('Vertex',(4.59185404911,15.3269330393,86.7)) ;
#325=CARTESIAN_POINT('Line Origine',(4.5488054174,15.1832430421,86.85)) ;
#329=CARTESIAN_POINT('Vertex',(4.50575678569,15.0395530448,87.)) ;
#332=CARTESIAN_POINT('Axis2P3D Location',(0.,0.,87.)) ;
#344=CARTESIAN_POINT('Axis2P3D Location',(0.,0.,86.7)) ;
#349=CARTESIAN_POINT('Axis2P3D Location',(0.,0.,87.)) ;
#361=CARTESIAN_POINT('Axis2P3D Location',(0.,0.,71.5)) ;
#366=CARTESIAN_POINT('Line Origine',(-4.59185404911,-15.3269330393,85.35)) ;
#370=CARTESIAN_POINT('Vertex',(-4.59185404911,-15.3269330393,84.)) ;
#373=CARTESIAN_POINT('Axis2P3D Location',(0.,0.,84.)) ;
#377=CARTESIAN_POINT('Vertex',(4.59185404911,15.3269330393,84.)) ;
#380=CARTESIAN_POINT('Line Origine',(4.59185404911,15.3269330393,85.35)) ;
#392=CARTESIAN_POINT('Axis2P3D Location',(0.,0.,84.)) ;
#404=CARTESIAN_POINT('Axis2P3D Location',(0.,0.,68.9319803146)) ;
#409=CARTESIAN_POINT('Line Origine',(-3.67967925686,-12.2822278263,76.4659901573)) ;
#413=CARTESIAN_POINT('Vertex',(-2.76750446461,-9.23752261319,68.9319803146)) ;
#416=CARTESIAN_POINT('Axis2P3D Location',(0.,0.,68.9319803146)) ;
#420=CARTESIAN_POINT('Vertex',(2.76750446461,9.23752261319,68.9319803146)) ;
#423=CARTESIAN_POINT('Line Origine',(3.67967925686,12.2822278263,76.4659901573)) ;
#435=CARTESIAN_POINT('Axis2P3D Location',(0.,0.,68.9319803146)) ;
#447=CARTESIAN_POINT('Axis2P3D Location',(0.,0.,66.9884777875)) ;
#452=CARTESIAN_POINT('Axis2P3D Location',(-4.08962001249,-13.6505497381,66.9884777875)) ;
#456=CARTESIAN_POINT('Vertex',(-2.65466562214,-8.86088316335,66.9884777875)) ;
#459=CARTESIAN_POINT('Axis2P3D Location',(0.,0.,66.9884777875)) ;
#463=CARTESIAN_POINT('Vertex',(2.65466562214,8.86088316335,66.9884777875)) ;
#466=CARTESIAN_POINT('Axis2P3D Location',(4.08962001249,13.6505497381,66.9884777875)) ;
#478=CARTESIAN_POINT('Axis2P3D Location',(0.,0.,66.9884777875)) ;
#490=CARTESIAN_POINT('Axis2P3D Location',(-2.38509431273,11.249947783,143.)) ;
#500=CARTESIAN_POINT('Axis2P3D Location',(-3.25617223564,15.3586243646,87.)) ;
#514=CARTESIAN_POINT('Axis2P3D Location',(0.,0.,6.5)) ;
#520=CARTESIAN_POINT('Control Point',(2.65466562214,8.86088316335,6.5)) ;
#521=CARTESIAN_POINT('Control Point',(4.04652989466,8.44388926254,6.5)) ;
#522=CARTESIAN_POINT('Control Point',(5.35651760621,7.7536034509,6.5)) ;
#523=CARTESIAN_POINT('Control Point',(6.51290569922,6.81121917812,6.5)) ;
#524=CARTESIAN_POINT('Control Point',(8.39386467018,4.52380960083,6.5)) ;
#525=CARTESIAN_POINT('Control Point',(9.27025550166,1.69499565586,6.5)) ;
#526=CARTESIAN_POINT('Control Point',(9.42157905415,0.210939483851,6.5)) ;
#527=CARTESIAN_POINT('Control Point',(9.13417507419,-2.7365421831,6.5)) ;
#528=CARTESIAN_POINT('Control Point',(7.7536034509,-5.35651760621,6.5)) ;
#529=CARTESIAN_POINT('Control Point',(6.81121917812,-6.51290569922,6.5)) ;
#530=CARTESIAN_POINT('Control Point',(4.52380960083,-8.39386467018,6.5)) ;
#531=CARTESIAN_POINT('Control Point',(1.69499565586,-9.27025550166,6.5)) ;
#532=CARTESIAN_POINT('Control Point',(0.210939483851,-9.42157905415,6.5)) ;
#533=CARTESIAN_POINT('Control Point',(-1.26280134963,-9.27787706417,6.5)) ;
#534=CARTESIAN_POINT('Control Point',(-2.65466562214,-8.86088316335,6.5)) ;
#535=CARTESIAN_POINT('Vertex',(-2.65466562214,-8.86088316335,6.5)) ;
#537=CARTESIAN_POINT('Vertex',(2.65466562214,8.86088316335,6.5)) ;
#541=CARTESIAN_POINT('Control Point',(-2.65466562214,-8.86088316335,6.5)) ;
#542=CARTESIAN_POINT('Control Point',(-4.04652989466,-8.44388926254,6.5)) ;
#543=CARTESIAN_POINT('Control Point',(-5.35651760621,-7.7536034509,6.5)) ;
#544=CARTESIAN_POINT('Control Point',(-6.51290569922,-6.81121917812,6.5)) ;
#545=CARTESIAN_POINT('Control Point',(-8.39386467018,-4.52380960083,6.5)) ;
#546=CARTESIAN_POINT('Control Point',(-9.27025550166,-1.69499565586,6.5)) ;
#547=CARTESIAN_POINT('Control Point',(-9.42157905415,-0.210939483851,6.5)) ;
#548=CARTESIAN_POINT('Control Point',(-9.13417507419,2.7365421831,6.5)) ;
#549=CARTESIAN_POINT('Control Point',(-7.7536034509,5.35651760621,6.5)) ;
#550=CARTESIAN_POINT('Control Point',(-6.81121917812,6.51290569922,6.5)) ;
#551=CARTESIAN_POINT('Control Point',(-4.52380960083,8.39386467018,6.5)) ;
#552=CARTESIAN_POINT('Control Point',(-1.69499565586,9.27025550166,6.5)) ;
#553=CARTESIAN_POINT('Control Point',(-0.210939483851,9.42157905415,6.5)) ;
#554=CARTESIAN_POINT('Control Point',(1.26280134963,9.27787706417,6.5)) ;
#555=CARTESIAN_POINT('Control Point',(2.65466562214,8.86088316335,6.5)) ;
#562=CARTESIAN_POINT('Axis2P3D Location',(0.,0.,71.5)) ;
#567=CARTESIAN_POINT('Line Origine',(-2.65466562214,-8.86088316335,33.4942388938)) ;
#572=CARTESIAN_POINT('Line Origine',(2.65466562214,8.86088316335,33.4942388938)) ;
#603=CARTESIAN_POINT('Axis2P3D Location',(0.,0.,0.)) ;
#608=CARTESIAN_POINT('Axis2P3D Location',(0.,0.,0.)) ;
#612=CARTESIAN_POINT('Vertex',(0.0915960751878,-0.0274416158572,0.)) ;
#614=CARTESIAN_POINT('Vertex',(-0.0915960751878,0.0274416158572,0.)) ;
#617=CARTESIAN_POINT('Line Origine',(0.158003230797,-0.0473367876827,0.00715991021093)) ;
#621=CARTESIAN_POINT('Vertex',(0.224410386407,-0.0672319595082,0.0143198204219)) ;
#624=CARTESIAN_POINT('Axis2P3D Location',(0.,0.,0.0143198204219)) ;
#628=CARTESIAN_POINT('Vertex',(-0.224410386407,0.0672319595082,0.0143198204219)) ;
#631=CARTESIAN_POINT('Line Origine',(-0.158003230797,0.0473367876827,0.00715991021093)) ;
#643=CARTESIAN_POINT('Axis2P3D Location',(0.,0.,0.)) ;
#648=CARTESIAN_POINT('Axis2P3D Location',(0.,0.,0.0143198204219)) ;
#660=CARTESIAN_POINT('Axis2P3D Location',(0.,0.,-3.401932785)) ;
#665=CARTESIAN_POINT('Axis2P3D Location',(1.3370290315,-0.400565602806,-3.401932785)) ;
#669=CARTESIAN_POINT('Vertex',(0.600618208543,-0.179941488998,0.123522863771)) ;
#672=CARTESIAN_POINT('Axis2P3D Location',(0.,0.,0.123522863771)) ;
#676=CARTESIAN_POINT('Vertex',(-0.600618208543,0.179941488998,0.123522863771)) ;
#679=CARTESIAN_POINT('Axis2P3D Location',(-1.3370290315,0.400565602806,-3.401932785)) ;
#691=CARTESIAN_POINT('Axis2P3D Location',(0.,0.,0.123522863771)) ;
#703=CARTESIAN_POINT('Axis2P3D Location',(0.,0.,0.123522863767)) ;
#708=CARTESIAN_POINT('Line Origine',(2.40753014811,-0.721281095873,0.557733939257)) ;
#712=CARTESIAN_POINT('Vertex',(4.2144420877,-1.26262070275,0.991945014746)) ;
#715=CARTESIAN_POINT('Axis2P3D Location',(0.,0.,0.991945014746)) ;
#719=CARTESIAN_POINT('Vertex',(-4.2144420877,1.26262070275,0.991945014746)) ;
#722=CARTESIAN_POINT('Line Origine',(-2.40753014811,0.721281095873,0.557733939257)) ;
#734=CARTESIAN_POINT('Axis2P3D Location',(0.,0.,0.991945014746)) ;
#747=CARTESIAN_POINT('Control Point',(9.29344982715,1.9702984188,2.84833411771)) ;
#748=CARTESIAN_POINT('Control Point',(8.66814619991,1.83772819236,2.62686449334)) ;
#749=CARTESIAN_POINT('Control Point',(8.04592523261,1.7058115187,2.40467840609)) ;
#750=CARTESIAN_POINT('Control Point',(7.43078618188,1.57539627769,2.18282219202)) ;
#751=CARTESIAN_POINT('Control Point',(6.40308698208,1.35751442047,1.80751929544)) ;
#752=CARTESIAN_POINT('Control Point',(5.41869215016,1.14881349488,1.43509964375)) ;
#753=CARTESIAN_POINT('Control Point',(5.02713229071,1.06579913678,1.28413498323)) ;
#754=CARTESIAN_POINT('Control Point',(4.65295927004,0.986470951373,1.13590091477)) ;
#755=CARTESIAN_POINT('Control Point',(4.30385255707,0.912457058001,0.991944628096)) ;
#756=CARTESIAN_POINT('Axis1P Location',(0.,0.,5.50000000001)) ;
#761=CARTESIAN_POINT('Control Point',(9.10038088875,-2.72641765481,2.84833411771)) ;
#762=CARTESIAN_POINT('Control Point',(8.48806777739,-2.54297244548,2.62686449334)) ;
#763=CARTESIAN_POINT('Control Point',(7.87877328452,-2.36043159553,2.40467840609)) ;
#764=CARTESIAN_POINT('Control Point',(7.27641358331,-2.17996836613,2.18282219202)) ;
#765=CARTESIAN_POINT('Control Point',(6.27006455993,-1.87847244219,1.80751929544)) ;
#766=CARTESIAN_POINT('Control Point',(5.30612026777,-1.58968071265,1.43509964375)) ;
#767=CARTESIAN_POINT('Control Point',(4.92269495984,-1.47480886919,1.28413498323)) ;
#768=CARTESIAN_POINT('Control Point',(4.55629528376,-1.36503779941,1.13590091477)) ;
#769=CARTESIAN_POINT('Control Point',(4.21444116952,-1.26262042767,0.991944628096)) ;
#770=CARTESIAN_POINT('Vertex',(9.10038088875,-2.72641765481,2.84833411771)) ;
#773=CARTESIAN_POINT('Axis2P3D Location',(0.,0.,2.84833411771)) ;
#777=CARTESIAN_POINT('Vertex',(-9.10038088875,2.72641765481,2.84833411771)) ;
#781=CARTESIAN_POINT('Control Point',(-9.10038088875,2.72641765481,2.84833411771)) ;
#782=CARTESIAN_POINT('Control Point',(-8.48806777739,2.54297244548,2.62686449334)) ;
#783=CARTESIAN_POINT('Control Point',(-7.87877328452,2.36043159553,2.40467840609)) ;
#784=CARTESIAN_POINT('Control Point',(-7.27641358331,2.17996836613,2.18282219202)) ;
#785=CARTESIAN_POINT('Control Point',(-6.27006455993,1.87847244219,1.80751929544)) ;
#786=CARTESIAN_POINT('Control Point',(-5.30612026777,1.58968071265,1.43509964375)) ;
#787=CARTESIAN_POINT('Control Point',(-4.92269495984,1.47480886919,1.28413498323)) ;
#788=CARTESIAN_POINT('Control Point',(-4.55629528376,1.36503779941,1.13590091477)) ;
#789=CARTESIAN_POINT('Control Point',(-4.21444116952,1.26262042767,0.991944628096)) ;
#799=CARTESIAN_POINT('Control Point',(9.29344982715,1.9702984188,2.84833411771)) ;
#800=CARTESIAN_POINT('Control Point',(8.66814619991,1.83772819236,2.62686449334)) ;
#801=CARTESIAN_POINT('Control Point',(8.04592523261,1.7058115187,2.40467840609)) ;
#802=CARTESIAN_POINT('Control Point',(7.43078618188,1.57539627769,2.18282219202)) ;
#803=CARTESIAN_POINT('Control Point',(6.40308698208,1.35751442047,1.80751929544)) ;
#804=CARTESIAN_POINT('Control Point',(5.41869215016,1.14881349488,1.43509964375)) ;
#805=CARTESIAN_POINT('Control Point',(5.02713229071,1.06579913678,1.28413498323)) ;
#806=CARTESIAN_POINT('Control Point',(4.65295927004,0.986470951373,1.13590091477)) ;
#807=CARTESIAN_POINT('Control Point',(4.30385255707,0.912457058001,0.991944628096)) ;
#808=CARTESIAN_POINT('Axis1P Location',(0.,0.,5.50000000001)) ;
#812=CARTESIAN_POINT('Axis2P3D Location',(0.,0.,2.84833411771)) ;
#824=CARTESIAN_POINT('Axis2P3D Location',(0.,0.,5.50000000001)) ;
#829=CARTESIAN_POINT('Line Origine',(9.10036649209,-2.72641334166,6.73385419756)) ;
#833=CARTESIAN_POINT('Vertex',(9.10036649209,-2.72641334166,10.6193790076)) ;
#836=CARTESIAN_POINT('Axis2P3D Location',(0.,0.,10.6193790076)) ;
#840=CARTESIAN_POINT('Vertex',(-9.10036649209,2.72641334166,10.6193790076)) ;
#843=CARTESIAN_POINT('Line Origine',(-9.10036649209,2.72641334166,6.73385419756)) ;
#855=CARTESIAN_POINT('Axis2P3D Location',(0.,0.,10.6193790076)) ;
#867=CARTESIAN_POINT('Axis2P3D Location',(0.,0.,11.)) ;
#872=CARTESIAN_POINT('Line Origine',(9.0141551385,-2.70058495498,10.8096836657)) ;
#876=CARTESIAN_POINT('Vertex',(8.92793849539,-2.6747549836,11.)) ;
#879=CARTESIAN_POINT('Axis2P3D Location',(0.,0.,11.)) ;
#883=CARTESIAN_POINT('Vertex',(-8.92793849539,2.6747549836,11.)) ;
#886=CARTESIAN_POINT('Line Origine',(-9.0141551385,2.70058495498,10.8096836657)) ;
#898=CARTESIAN_POINT('Axis2P3D Location',(0.,0.,11.)) ;
#910=CARTESIAN_POINT('Axis2P3D Location',(0.,0.,3.10862446895E-015)) ;
#920=CARTESIAN_POINT('Axis2P3D Location',(0.,0.,11.)) ;
#930=CARTESIAN_POINT('Line Origine',(0.,4.66,11.)) ;
#934=CARTESIAN_POINT('Limit',(0.,1.7763568394E-015,11.)) ;
#935=CARTESIAN_POINT('Limit',(0.,9.32,11.)) ;
#938=CARTESIAN_POINT('Line Origine',(0.,9.41000276089,10.8096836657)) ;
#942=CARTESIAN_POINT('Limit',(0.,9.32,11.)) ;
#943=CARTESIAN_POINT('Limit',(0.,9.50000552179,10.6193673314)) ;
#946=CARTESIAN_POINT('Line Origine',(0.,9.5,6.73385419756)) ;
#950=CARTESIAN_POINT('Limit',(0.,9.50000552179,10.6193673314)) ;
#951=CARTESIAN_POINT('Limit',(0.,9.5,2.84832938754)) ;
#955=CARTESIAN_POINT('Control Point',(0.,9.50001502887,2.84833411771)) ;
#956=CARTESIAN_POINT('Control Point',(0.,8.96323648969,2.66235206725)) ;
#957=CARTESIAN_POINT('Control Point',(0.,8.42823398894,2.47571016821)) ;
#958=CARTESIAN_POINT('Control Point',(0.,7.89832798276,2.28934077489)) ;
#959=CARTESIAN_POINT('Control Point',(0.,7.15842371816,2.026556701)) ;
#960=CARTESIAN_POINT('Control Point',(0.,6.4310553001,1.76289444236)) ;
#961=CARTESIAN_POINT('Control Point',(0.,6.23188445882,1.69022247269)) ;
#962=CARTESIAN_POINT('Control Point',(0.,5.72684004359,1.5045400028)) ;
#963=CARTESIAN_POINT('Control Point',(0.,5.23324967768,1.31888725382)) ;
#964=CARTESIAN_POINT('Control Point',(0.,4.94551251951,1.20880274155)) ;
#965=CARTESIAN_POINT('Control Point',(0.,4.66654685707,1.09966294722)) ;
#966=CARTESIAN_POINT('Control Point',(0.,4.39951414541,0.991944628096)) ;
#967=CARTESIAN_POINT('Limit',(0.,9.5,2.84832938754)) ;
#968=CARTESIAN_POINT('Limit',(0.,4.39951414541,0.991944628096)) ;
#971=CARTESIAN_POINT('Line Origine',(0.,2.51325443068,0.557733939257)) ;
#975=CARTESIAN_POINT('Limit',(0.,4.39951414541,0.991944628096)) ;
#976=CARTESIAN_POINT('Limit',(0.,0.626993757446,0.123522863767)) ;
#979=CARTESIAN_POINT('Axis2P3D Location',(0.,1.39574332641,-3.401932785)) ;
#983=CARTESIAN_POINT('Limit',(0.,0.626993757446,0.123522863767)) ;
#984=CARTESIAN_POINT('Limit',(0.,0.23426514444,0.0143198204168)) ;
#987=CARTESIAN_POINT('Line Origine',(0.,0.164941784914,0.00715991021093)) ;
#991=CARTESIAN_POINT('Limit',(0.,0.23426514444,0.0143198204168)) ;
#992=CARTESIAN_POINT('Limit',(0.,0.0956184253722,0.)) ;
#995=CARTESIAN_POINT('Line Origine',(0.,0.0478092126861,3.10862446895E-015)) ;
#999=CARTESIAN_POINT('Limit',(0.,0.0956184253722,0.)) ;
#1000=CARTESIAN_POINT('Limit',(0.,3.46944695195E-017,3.10862446895E-015)) ;
#1012=CARTESIAN_POINT('Axis2P3D Location',(0.,0.,0.)) ;
#1018=CARTESIAN_POINT('Axis2P3D Location',(0.,0.,87.)) ;
#1022=CARTESIAN_POINT('Axis2P3D Location',(0.,0.,87.)) ;
#1026=CARTESIAN_POINT('Axis2P3D Location',(0.,0.,11.)) ;
#33=DIRECTION('Axis2P3D Direction',(0.,0.,-1.)) ;
#34=DIRECTION('Axis2P3D XDirection',(0.286990878069,0.957933314957,0.)) ;
#38=DIRECTION('Vector Direction',(-0.202933196022,-0.677361142931,-0.707106781187)) ;
#47=DIRECTION('Axis2P3D Direction',(0.,0.,-1.)) ;
#54=DIRECTION('Vector Direction',(0.202933196022,0.677361142931,-0.707106781187)) ;
#61=DIRECTION('Axis2P3D Direction',(0.,0.,-1.)) ;
#73=DIRECTION('Axis2P3D Direction',(0.,0.,-1.)) ;
#78=DIRECTION('Axis2P3D Direction',(0.,0.,-1.)) ;
#90=DIRECTION('Axis2P3D Direction',(0.,0.,-1.)) ;
#91=DIRECTION('Axis2P3D XDirection',(0.286990878069,0.957933314957,0.)) ;
#95=DIRECTION('Vector Direction',(0.,0.,-1.)) ;
#102=DIRECTION('Axis2P3D Direction',(0.,0.,-1.)) ;
#109=DIRECTION('Vector Direction',(0.,0.,-1.)) ;
#121=DIRECTION('Axis2P3D Direction',(0.,0.,-1.)) ;
#133=DIRECTION('Axis2P3D Direction',(0.,0.,1.)) ;
#134=DIRECTION('Axis2P3D XDirection',(0.286990878069,0.957933314957,0.)) ;
#138=DIRECTION('Vector Direction',(-0.0981566612505,-0.327632489678,0.939692620786)) ;
#145=DIRECTION('Axis2P3D Direction',(0.,-0.,1.)) ;
#152=DIRECTION('Vector Direction',(0.0981566612505,0.327632489678,0.939692620786)) ;
#164=DIRECTION('Axis2P3D Direction',(0.,-0.,1.)) ;
#176=DIRECTION('Axis2P3D Direction',(0.,0.,-1.)) ;
#177=DIRECTION('Axis2P3D XDirection',(0.286990878069,0.957933314957,0.)) ;
#181=DIRECTION('Vector Direction',(0.,0.,-1.)) ;
#188=DIRECTION('Axis2P3D Direction',(0.,0.,-1.)) ;
#195=DIRECTION('Vector Direction',(0.,0.,-1.)) ;
#207=DIRECTION('Axis2P3D Direction',(0.,0.,-1.)) ;
#219=DIRECTION('Axis2P3D Direction',(0.,0.,-1.)) ;
#220=DIRECTION('Axis2P3D XDirection',(0.286990878069,0.957933314957,0.)) ;
#224=DIRECTION('Axis2P3D Direction',(0.957933314957,-0.286990878069,0.)) ;
#231=DIRECTION('Axis2P3D Direction',(0.,0.,-1.)) ;
#238=DIRECTION('Axis2P3D Direction',(-0.957933314957,0.286990878069,0.)) ;
#250=DIRECTION('Axis2P3D Direction',(0.,0.,-1.)) ;
#262=DIRECTION('Axis2P3D Direction',(0.,0.,1.)) ;
#263=DIRECTION('Axis2P3D XDirection',(0.286990878069,0.957933314957,0.)) ;
#267=DIRECTION('Vector Direction',(-0.269683210355,-0.90016286727,0.342020143326)) ;
#274=DIRECTION('Axis2P3D Direction',(0.,-0.,1.)) ;
#281=DIRECTION('Vector Direction',(0.269683210355,0.90016286727,0.342020143326)) ;
#293=DIRECTION('Axis2P3D Direction',(0.,-0.,1.)) ;
#305=DIRECTION('Axis2P3D Direction',(0.,0.,-1.)) ;
#306=DIRECTION('Axis2P3D XDirection',(0.286990878069,0.957933314957,0.)) ;
#310=DIRECTION('Vector Direction',(-0.202933196022,-0.677361142931,-0.707106781187)) ;
#319=DIRECTION('Axis2P3D Direction',(0.,0.,-1.)) ;
#326=DIRECTION('Vector Direction',(0.202933196022,0.677361142931,-0.707106781187)) ;
#333=DIRECTION('Axis2P3D Direction',(0.,0.,-1.)) ;
#345=DIRECTION('Axis2P3D Direction',(0.,0.,-1.)) ;
#350=DIRECTION('Axis2P3D Direction',(0.,0.,-1.)) ;
#362=DIRECTION('Axis2P3D Direction',(0.,0.,-1.)) ;
#363=DIRECTION('Axis2P3D XDirection',(0.286990878069,0.957933314957,0.)) ;
#367=DIRECTION('Vector Direction',(0.,0.,-1.)) ;
#374=DIRECTION('Axis2P3D Direction',(0.,0.,-1.)) ;
#381=DIRECTION('Vector Direction',(0.,0.,-1.)) ;
#393=DIRECTION('Axis2P3D Direction',(0.,0.,-1.)) ;
#405=DIRECTION('Axis2P3D Direction',(0.,0.,1.)) ;
#406=DIRECTION('Axis2P3D XDirection',(0.286990878069,0.957933314957,0.)) ;
#410=DIRECTION('Vector Direction',(-0.111553499352,-0.372349163667,0.921364160958)) ;
#417=DIRECTION('Axis2P3D Direction',(0.,-0.,1.)) ;
#424=DIRECTION('Vector Direction',(0.111553499352,0.372349163667,0.921364160958)) ;
#436=DIRECTION('Axis2P3D Direction',(0.,-0.,1.)) ;
#448=DIRECTION('Axis2P3D Direction',(0.,0.,-1.)) ;
#449=DIRECTION('Axis2P3D XDirection',(0.286990878069,0.957933314957,0.)) ;
#453=DIRECTION('Axis2P3D Direction',(0.957933314957,-0.286990878069,0.)) ;
#460=DIRECTION('Axis2P3D Direction',(0.,0.,-1.)) ;
#467=DIRECTION('Axis2P3D Direction',(-0.957933314957,0.286990878069,0.)) ;
#479=DIRECTION('Axis2P3D Direction',(0.,0.,-1.)) ;
#491=DIRECTION('Axis2P3D Direction',(0.,0.,-1.)) ;
#492=DIRECTION('Axis2P3D XDirection',(0.978256328953,0.207399505455,0.)) ;
#501=DIRECTION('Axis2P3D Direction',(0.,0.,-1.)) ;
#502=DIRECTION('Axis2P3D XDirection',(0.978256328953,0.207399505455,0.)) ;
#515=DIRECTION('Axis2P3D Direction',(0.,0.,-1.)) ;
#516=DIRECTION('Axis2P3D XDirection',(0.978256328953,0.207399505455,0.)) ;
#563=DIRECTION('Axis2P3D Direction',(0.,0.,-1.)) ;
#564=DIRECTION('Axis2P3D XDirection',(0.286990878069,0.957933314957,0.)) ;
#568=DIRECTION('Vector Direction',(0.,0.,-1.)) ;
#573=DIRECTION('Vector Direction',(0.,0.,-1.)) ;
#604=DIRECTION('Axis2P3D Direction',(0.,0.,1.)) ;
#605=DIRECTION('Axis2P3D XDirection',(0.957933314957,-0.286990878069,0.)) ;
#609=DIRECTION('Axis2P3D Direction',(0.,-0.,1.)) ;
#618=DIRECTION('Vector Direction',(0.952864533918,-0.285472302717,0.102736285622)) ;
#625=DIRECTION('Axis2P3D Direction',(0.,-0.,1.)) ;
#632=DIRECTION('Vector Direction',(-0.952864533918,0.285472302717,0.102736285622)) ;
#644=DIRECTION('Axis2P3D Direction',(0.,-0.,1.)) ;
#649=DIRECTION('Axis2P3D Direction',(0.,-0.,1.)) ;
#661=DIRECTION('Axis2P3D Direction',(0.,0.,-1.)) ;
#662=DIRECTION('Axis2P3D XDirection',(0.957933314957,-0.286990878069,0.)) ;
#666=DIRECTION('Axis2P3D Direction',(0.286990878069,0.957933314957,0.)) ;
#673=DIRECTION('Axis2P3D Direction',(0.,0.,-1.)) ;
#680=DIRECTION('Axis2P3D Direction',(-0.286990878069,-0.957933314957,-0.)) ;
#692=DIRECTION('Axis2P3D Direction',(0.,0.,-1.)) ;
#704=DIRECTION('Axis2P3D Direction',(0.,0.,1.)) ;
#705=DIRECTION('Axis2P3D XDirection',(0.957933314957,-0.286990878069,0.)) ;
#709=DIRECTION('Vector Direction',(0.933518742725,-0.279676423699,0.224329790726)) ;
#716=DIRECTION('Axis2P3D Direction',(0.,-0.,1.)) ;
#723=DIRECTION('Vector Direction',(-0.933518742725,0.279676423699,0.224329790726)) ;
#735=DIRECTION('Axis2P3D Direction',(0.,-0.,1.)) ;
#757=DIRECTION('Axis1P Direction',(0.,0.,-1.)) ;
#774=DIRECTION('Axis2P3D Direction',(0.,0.,-1.)) ;
#809=DIRECTION('Axis1P Direction',(0.,0.,-1.)) ;
#813=DIRECTION('Axis2P3D Direction',(0.,0.,-1.)) ;
#825=DIRECTION('Axis2P3D Direction',(0.,0.,-1.)) ;
#826=DIRECTION('Axis2P3D XDirection',(0.957933314957,-0.286990878069,0.)) ;
#830=DIRECTION('Vector Direction',(0.,0.,-1.)) ;
#837=DIRECTION('Axis2P3D Direction',(0.,0.,-1.)) ;
#844=DIRECTION('Vector Direction',(0.,0.,-1.)) ;
#856=DIRECTION('Axis2P3D Direction',(0.,0.,-1.)) ;
#868=DIRECTION('Axis2P3D Direction',(0.,0.,-1.)) ;
#869=DIRECTION('Axis2P3D XDirection',(0.957933314957,-0.286990878069,0.)) ;
#873=DIRECTION('Vector Direction',(0.40953148289,-0.122693091509,-0.904007947873)) ;
#880=DIRECTION('Axis2P3D Direction',(0.,0.,-1.)) ;
#887=DIRECTION('Vector Direction',(-0.40953148289,0.122693091509,-0.904007947873)) ;
#899=DIRECTION('Axis2P3D Direction',(0.,0.,-1.)) ;
#911=DIRECTION('Axis2P3D Direction',(0.,0.,-1.)) ;
#912=DIRECTION('Axis2P3D XDirection',(0.978256328953,0.207399505455,0.)) ;
#921=DIRECTION('Axis2P3D Direction',(0.,0.,-1.)) ;
#922=DIRECTION('Axis2P3D XDirection',(0.978256328953,0.207399505455,0.)) ;
#931=DIRECTION('Vector Direction',(0.,1.,0.)) ;
#939=DIRECTION('Vector Direction',(0.,0.427515649049,-0.904007947873)) ;
#947=DIRECTION('Vector Direction',(0.,0.,-1.)) ;
#972=DIRECTION('Vector Direction',(0.,0.974513286206,0.224329790726)) ;
#980=DIRECTION('Axis2P3D Direction',(-1.,-0.,0.)) ;
#988=DIRECTION('Vector Direction',(0.,0.994708628502,0.102736285622)) ;
#996=DIRECTION('Vector Direction',(0.,1.,0.)) ;
#1013=DIRECTION('Axis2P3D Direction',(0.,0.,1.)) ;
#1014=DIRECTION('Axis2P3D XDirection',(1.,0.,0.)) ;
#1019=DIRECTION('Axis2P3D Direction',(0.,0.,1.)) ;
#1020=DIRECTION('Axis2P3D XDirection',(1.,0.,0.)) ;
#1023=DIRECTION('Axis2P3D Direction',(0.,0.,1.)) ;
#1024=DIRECTION('Axis2P3D XDirection',(1.,0.,0.)) ;
#1027=DIRECTION('Axis2P3D Direction',(0.,0.,1.)) ;
#1028=DIRECTION('Axis2P3D XDirection',(0.207399505455,-0.978256328953,0.)) ;
#8=PRODUCT_RELATED_PRODUCT_CATEGORY('part',$,(#5)) ;
#7=PRODUCT_CATEGORY('part','specification') ;
#30=STYLED_ITEM(' ',(#29),#22) ;
#601=STYLED_ITEM(' ',(#600),#593) ;
#1008=STYLED_ITEM(' ',(#1007),#1003) ;
#29=PRESENTATION_STYLE_ASSIGNMENT((#28)) ;
#600=PRESENTATION_STYLE_ASSIGNMENT((#599)) ;
#1007=PRESENTATION_STYLE_ASSIGNMENT((#1006)) ;
#1006=CURVE_STYLE(' ',#1004,POSITIVE_LENGTH_MEASURE(0.129999995232),#1005) ;
#28=SURFACE_STYLE_USAGE(.BOTH.,#27) ;
#599=SURFACE_STYLE_USAGE(.BOTH.,#598) ;
#27=SURFACE_SIDE_STYLE(' ',(#26)) ;
#598=SURFACE_SIDE_STYLE(' ',(#597)) ;
#26=SURFACE_STYLE_FILL_AREA(#25) ;
#597=SURFACE_STYLE_FILL_AREA(#596) ;
#25=FILL_AREA_STYLE(' ',(#24)) ;
#596=FILL_AREA_STYLE(' ',(#595)) ;
#24=FILL_AREA_STYLE_COLOUR(' ',#23) ;
#595=FILL_AREA_STYLE_COLOUR(' ',#594) ;
#39=VECTOR('Line Direction',#38,1.) ;
#55=VECTOR('Line Direction',#54,1.) ;
#96=VECTOR('Line Direction',#95,1.) ;
#110=VECTOR('Line Direction',#109,1.) ;
#139=VECTOR('Line Direction',#138,1.) ;
#153=VECTOR('Line Direction',#152,1.) ;
#182=VECTOR('Line Direction',#181,1.) ;
#196=VECTOR('Line Direction',#195,1.) ;
#268=VECTOR('Line Direction',#267,1.) ;
#282=VECTOR('Line Direction',#281,1.) ;
#311=VECTOR('Line Direction',#310,1.) ;
#327=VECTOR('Line Direction',#326,1.) ;
#368=VECTOR('Line Direction',#367,1.) ;
#382=VECTOR('Line Direction',#381,1.) ;
#411=VECTOR('Line Direction',#410,1.) ;
#425=VECTOR('Line Direction',#424,1.) ;
#569=VECTOR('Line Direction',#568,1.) ;
#574=VECTOR('Line Direction',#573,1.) ;
#619=VECTOR('Line Direction',#618,1.) ;
#633=VECTOR('Line Direction',#632,1.) ;
#710=VECTOR('Line Direction',#709,1.) ;
#724=VECTOR('Line Direction',#723,1.) ;
#831=VECTOR('Line Direction',#830,1.) ;
#845=VECTOR('Line Direction',#844,1.) ;
#874=VECTOR('Line Direction',#873,1.) ;
#888=VECTOR('Line Direction',#887,1.) ;
#932=VECTOR('Line Direction',#931,1.) ;
#940=VECTOR('Line Direction',#939,1.) ;
#948=VECTOR('Line Direction',#947,1.) ;
#973=VECTOR('Line Direction',#972,1.) ;
#989=VECTOR('Line Direction',#988,1.) ;
#997=VECTOR('Line Direction',#996,1.) ;
#16=UNCERTAINTY_MEASURE_WITH_UNIT(LENGTH_MEASURE(0.005),#12,'distance_accuracy_value','CONFUSED CURVE UNCERTAINTY') ;
#758=AXIS1_PLACEMENT('Revolution Surface Axis1P',#756,#757) ;
#810=AXIS1_PLACEMENT('Revolution Surface Axis1P',#808,#809) ;
#1003=COMPOSITE_CURVE('cutting edge line',(#937,#945,#953,#970,#978,#986,#994,#1002),.U.) ;
#937=COMPOSITE_CURVE_SEGMENT(.CONTINUOUS.,.T.,#936) ;
#945=COMPOSITE_CURVE_SEGMENT(.CONTINUOUS.,.T.,#944) ;
#953=COMPOSITE_CURVE_SEGMENT(.CONTINUOUS.,.T.,#952) ;
#970=COMPOSITE_CURVE_SEGMENT(.CONTINUOUS.,.T.,#969) ;
#978=COMPOSITE_CURVE_SEGMENT(.CONTINUOUS.,.T.,#977) ;
#986=COMPOSITE_CURVE_SEGMENT(.CONTINUOUS.,.T.,#985) ;
#994=COMPOSITE_CURVE_SEGMENT(.CONTINUOUS.,.T.,#993) ;
#1002=COMPOSITE_CURVE_SEGMENT(.DISCONTINUOUS.,.T.,#1001) ;
#592=SHAPE_REPRESENTATION_RELATIONSHIP(' ',' ',#20,#591) ;
#1011=SHAPE_REPRESENTATION_RELATIONSHIP(' ',' ',#20,#1009) ;
#66=ORIENTED_EDGE('',*,*,#45,.T.) ;
#67=ORIENTED_EDGE('',*,*,#52,.F.) ;
#68=ORIENTED_EDGE('',*,*,#59,.F.) ;
#69=ORIENTED_EDGE('',*,*,#64,.T.) ;
#83=ORIENTED_EDGE('',*,*,#59,.T.) ;
#84=ORIENTED_EDGE('',*,*,#76,.F.) ;
#85=ORIENTED_EDGE('',*,*,#45,.F.) ;
#86=ORIENTED_EDGE('',*,*,#81,.T.) ;
#114=ORIENTED_EDGE('',*,*,#100,.T.) ;
#115=ORIENTED_EDGE('',*,*,#107,.F.) ;
#116=ORIENTED_EDGE('',*,*,#112,.F.) ;
#117=ORIENTED_EDGE('',*,*,#52,.T.) ;
#126=ORIENTED_EDGE('',*,*,#112,.T.) ;
#127=ORIENTED_EDGE('',*,*,#124,.F.) ;
#128=ORIENTED_EDGE('',*,*,#100,.F.) ;
#129=ORIENTED_EDGE('',*,*,#76,.T.) ;
#157=ORIENTED_EDGE('',*,*,#143,.T.) ;
#158=ORIENTED_EDGE('',*,*,#150,.F.) ;
#159=ORIENTED_EDGE('',*,*,#155,.F.) ;
#160=ORIENTED_EDGE('',*,*,#107,.T.) ;
#169=ORIENTED_EDGE('',*,*,#155,.T.) ;
#170=ORIENTED_EDGE('',*,*,#167,.F.) ;
#171=ORIENTED_EDGE('',*,*,#143,.F.) ;
#172=ORIENTED_EDGE('',*,*,#124,.T.) ;
#200=ORIENTED_EDGE('',*,*,#186,.T.) ;
#201=ORIENTED_EDGE('',*,*,#193,.F.) ;
#202=ORIENTED_EDGE('',*,*,#198,.F.) ;
#203=ORIENTED_EDGE('',*,*,#150,.T.) ;
#212=ORIENTED_EDGE('',*,*,#198,.T.) ;
#213=ORIENTED_EDGE('',*,*,#210,.F.) ;
#214=ORIENTED_EDGE('',*,*,#186,.F.) ;
#215=ORIENTED_EDGE('',*,*,#167,.T.) ;
#243=ORIENTED_EDGE('',*,*,#229,.T.) ;
#244=ORIENTED_EDGE('',*,*,#236,.F.) ;
#245=ORIENTED_EDGE('',*,*,#241,.F.) ;
#246=ORIENTED_EDGE('',*,*,#193,.T.) ;
#255=ORIENTED_EDGE('',*,*,#241,.T.) ;
#256=ORIENTED_EDGE('',*,*,#253,.F.) ;
#257=ORIENTED_EDGE('',*,*,#229,.F.) ;
#258=ORIENTED_EDGE('',*,*,#210,.T.) ;
#286=ORIENTED_EDGE('',*,*,#272,.T.) ;
#287=ORIENTED_EDGE('',*,*,#279,.F.) ;
#288=ORIENTED_EDGE('',*,*,#284,.F.) ;
#289=ORIENTED_EDGE('',*,*,#236,.T.) ;
#298=ORIENTED_EDGE('',*,*,#284,.T.) ;
#299=ORIENTED_EDGE('',*,*,#296,.F.) ;
#300=ORIENTED_EDGE('',*,*,#272,.F.) ;
#301=ORIENTED_EDGE('',*,*,#253,.T.) ;
#338=ORIENTED_EDGE('',*,*,#317,.T.) ;
#339=ORIENTED_EDGE('',*,*,#324,.F.) ;
#340=ORIENTED_EDGE('',*,*,#331,.F.) ;
#341=ORIENTED_EDGE('',*,*,#336,.T.) ;
#355=ORIENTED_EDGE('',*,*,#331,.T.) ;
#356=ORIENTED_EDGE('',*,*,#348,.F.) ;
#357=ORIENTED_EDGE('',*,*,#317,.F.) ;
#358=ORIENTED_EDGE('',*,*,#353,.T.) ;
#386=ORIENTED_EDGE('',*,*,#372,.T.) ;
#387=ORIENTED_EDGE('',*,*,#379,.F.) ;
#388=ORIENTED_EDGE('',*,*,#384,.F.) ;
#389=ORIENTED_EDGE('',*,*,#324,.T.) ;
#398=ORIENTED_EDGE('',*,*,#384,.T.) ;
#399=ORIENTED_EDGE('',*,*,#396,.F.) ;
#400=ORIENTED_EDGE('',*,*,#372,.F.) ;
#401=ORIENTED_EDGE('',*,*,#348,.T.) ;
#429=ORIENTED_EDGE('',*,*,#415,.T.) ;
#430=ORIENTED_EDGE('',*,*,#422,.F.) ;
#431=ORIENTED_EDGE('',*,*,#427,.F.) ;
#432=ORIENTED_EDGE('',*,*,#379,.T.) ;
#441=ORIENTED_EDGE('',*,*,#427,.T.) ;
#442=ORIENTED_EDGE('',*,*,#439,.F.) ;
#443=ORIENTED_EDGE('',*,*,#415,.F.) ;
#444=ORIENTED_EDGE('',*,*,#396,.T.) ;
#472=ORIENTED_EDGE('',*,*,#458,.T.) ;
#473=ORIENTED_EDGE('',*,*,#465,.F.) ;
#474=ORIENTED_EDGE('',*,*,#470,.F.) ;
#475=ORIENTED_EDGE('',*,*,#422,.T.) ;
#484=ORIENTED_EDGE('',*,*,#470,.T.) ;
#485=ORIENTED_EDGE('',*,*,#482,.F.) ;
#486=ORIENTED_EDGE('',*,*,#458,.F.) ;
#487=ORIENTED_EDGE('',*,*,#439,.T.) ;
#496=ORIENTED_EDGE('',*,*,#81,.F.) ;
#497=ORIENTED_EDGE('',*,*,#64,.F.) ;
#506=ORIENTED_EDGE('',*,*,#336,.F.) ;
#507=ORIENTED_EDGE('',*,*,#353,.F.) ;
#510=ORIENTED_EDGE('',*,*,#296,.T.) ;
#511=ORIENTED_EDGE('',*,*,#279,.T.) ;
#558=ORIENTED_EDGE('',*,*,#539,.F.) ;
#559=ORIENTED_EDGE('',*,*,#556,.F.) ;
#578=ORIENTED_EDGE('',*,*,#571,.T.) ;
#579=ORIENTED_EDGE('',*,*,#482,.T.) ;
#580=ORIENTED_EDGE('',*,*,#576,.F.) ;
#581=ORIENTED_EDGE('',*,*,#556,.T.) ;
#585=ORIENTED_EDGE('',*,*,#539,.T.) ;
#586=ORIENTED_EDGE('',*,*,#576,.T.) ;
#587=ORIENTED_EDGE('',*,*,#465,.T.) ;
#588=ORIENTED_EDGE('',*,*,#571,.F.) ;
#637=ORIENTED_EDGE('',*,*,#616,.F.) ;
#638=ORIENTED_EDGE('',*,*,#623,.T.) ;
#639=ORIENTED_EDGE('',*,*,#630,.T.) ;
#640=ORIENTED_EDGE('',*,*,#635,.F.) ;
#654=ORIENTED_EDGE('',*,*,#647,.F.) ;
#655=ORIENTED_EDGE('',*,*,#635,.T.) ;
#656=ORIENTED_EDGE('',*,*,#652,.T.) ;
#657=ORIENTED_EDGE('',*,*,#623,.F.) ;
#685=ORIENTED_EDGE('',*,*,#630,.F.) ;
#686=ORIENTED_EDGE('',*,*,#671,.T.) ;
#687=ORIENTED_EDGE('',*,*,#678,.T.) ;
#688=ORIENTED_EDGE('',*,*,#683,.F.) ;
#697=ORIENTED_EDGE('',*,*,#652,.F.) ;
#698=ORIENTED_EDGE('',*,*,#683,.T.) ;
#699=ORIENTED_EDGE('',*,*,#695,.T.) ;
#700=ORIENTED_EDGE('',*,*,#671,.F.) ;
#728=ORIENTED_EDGE('',*,*,#678,.F.) ;
#729=ORIENTED_EDGE('',*,*,#714,.T.) ;
#730=ORIENTED_EDGE('',*,*,#721,.T.) ;
#731=ORIENTED_EDGE('',*,*,#726,.F.) ;
#740=ORIENTED_EDGE('',*,*,#695,.F.) ;
#741=ORIENTED_EDGE('',*,*,#726,.T.) ;
#742=ORIENTED_EDGE('',*,*,#738,.T.) ;
#743=ORIENTED_EDGE('',*,*,#714,.F.) ;
#792=ORIENTED_EDGE('',*,*,#721,.F.) ;
#793=ORIENTED_EDGE('',*,*,#772,.T.) ;
#794=ORIENTED_EDGE('',*,*,#779,.T.) ;
#795=ORIENTED_EDGE('',*,*,#790,.F.) ;
#818=ORIENTED_EDGE('',*,*,#738,.F.) ;
#819=ORIENTED_EDGE('',*,*,#790,.T.) ;
#820=ORIENTED_EDGE('',*,*,#816,.T.) ;
#821=ORIENTED_EDGE('',*,*,#772,.F.) ;
#849=ORIENTED_EDGE('',*,*,#779,.F.) ;
#850=ORIENTED_EDGE('',*,*,#835,.T.) ;
#851=ORIENTED_EDGE('',*,*,#842,.T.) ;
#852=ORIENTED_EDGE('',*,*,#847,.F.) ;
#861=ORIENTED_EDGE('',*,*,#816,.F.) ;
#862=ORIENTED_EDGE('',*,*,#847,.T.) ;
#863=ORIENTED_EDGE('',*,*,#859,.T.) ;
#864=ORIENTED_EDGE('',*,*,#835,.F.) ;
#892=ORIENTED_EDGE('',*,*,#842,.F.) ;
#893=ORIENTED_EDGE('',*,*,#878,.T.) ;
#894=ORIENTED_EDGE('',*,*,#885,.T.) ;
#895=ORIENTED_EDGE('',*,*,#890,.F.) ;
#904=ORIENTED_EDGE('',*,*,#859,.F.) ;
#905=ORIENTED_EDGE('',*,*,#890,.T.) ;
#906=ORIENTED_EDGE('',*,*,#902,.T.) ;
#907=ORIENTED_EDGE('',*,*,#878,.F.) ;
#916=ORIENTED_EDGE('',*,*,#616,.T.) ;
#917=ORIENTED_EDGE('',*,*,#647,.T.) ;
#926=ORIENTED_EDGE('',*,*,#885,.F.) ;
#927=ORIENTED_EDGE('',*,*,#902,.F.) ;
#512=FACE_BOUND('',#509,.T.) ;
#31=CLOSED_SHELL('Closed Shell',(#71,#88,#119,#131,#162,#174,#205,#217,#248,#260,#291,#303,#343,#360,#391,#403,#434,#446,#477,#489,#499,#513,#561,#583,#590)) ;
#602=CLOSED_SHELL('Closed Shell',(#642,#659,#690,#702,#733,#745,#797,#823,#854,#866,#897,#909,#919,#929)) ;
#591=ADVANCED_BREP_SHAPE_REPRESENTATION('NONE',(#22,#593),#17) ;
#71=ADVANCED_FACE('NOCUT',(#70),#36,.T.) ;
#88=ADVANCED_FACE('NOCUT',(#87),#36,.T.) ;
#119=ADVANCED_FACE('NOCUT',(#118),#93,.T.) ;
#131=ADVANCED_FACE('NOCUT',(#130),#93,.T.) ;
#162=ADVANCED_FACE('NOCUT',(#161),#136,.T.) ;
#174=ADVANCED_FACE('NOCUT',(#173),#136,.T.) ;
#205=ADVANCED_FACE('NOCUT',(#204),#179,.T.) ;
#217=ADVANCED_FACE('NOCUT',(#216),#179,.T.) ;
#248=ADVANCED_FACE('NOCUT',(#247),#222,.F.) ;
#260=ADVANCED_FACE('NOCUT',(#259),#222,.F.) ;
#291=ADVANCED_FACE('NOCUT',(#290),#265,.F.) ;
#303=ADVANCED_FACE('NOCUT',(#302),#265,.F.) ;
#343=ADVANCED_FACE('NOCUT',(#342),#308,.T.) ;
#360=ADVANCED_FACE('NOCUT',(#359),#308,.T.) ;
#391=ADVANCED_FACE('NOCUT',(#390),#365,.T.) ;
#403=ADVANCED_FACE('NOCUT',(#402),#365,.T.) ;
#434=ADVANCED_FACE('NOCUT',(#433),#408,.T.) ;
#446=ADVANCED_FACE('NOCUT',(#445),#408,.T.) ;
#477=ADVANCED_FACE('NOCUT',(#476),#451,.F.) ;
#489=ADVANCED_FACE('NOCUT',(#488),#451,.F.) ;
#499=ADVANCED_FACE('NOCUT',(#498),#494,.F.) ;
#513=ADVANCED_FACE('NOCUT',(#508,#512),#504,.F.) ;
#561=ADVANCED_FACE('NOCUT',(#560),#518,.T.) ;
#583=ADVANCED_FACE('NOCUT',(#582),#566,.T.) ;
#590=ADVANCED_FACE('NOCUT',(#589),#566,.T.) ;
#642=ADVANCED_FACE('CUT',(#641),#607,.T.) ;
#659=ADVANCED_FACE('CUT',(#658),#607,.T.) ;
#690=ADVANCED_FACE('CUT',(#689),#664,.F.) ;
#702=ADVANCED_FACE('CUT',(#701),#664,.F.) ;
#733=ADVANCED_FACE('CUT',(#732),#707,.T.) ;
#745=ADVANCED_FACE('CUT',(#744),#707,.T.) ;
#797=ADVANCED_FACE('CUT',(#796),#759,.T.) ;
#823=ADVANCED_FACE('CUT',(#822),#811,.T.) ;
#854=ADVANCED_FACE('CUT',(#853),#828,.T.) ;
#866=ADVANCED_FACE('CUT',(#865),#828,.T.) ;
#897=ADVANCED_FACE('CUT',(#896),#871,.T.) ;
#909=ADVANCED_FACE('CUT',(#908),#871,.T.) ;
#919=ADVANCED_FACE('CUT',(#918),#914,.T.) ;
#929=ADVANCED_FACE('CUT',(#928),#924,.F.) ;
#4=APPLICATION_PROTOCOL_DEFINITION('international standard','automotive_design',2001,#1) ;
#519=B_SPLINE_CURVE_WITH_KNOTS('',5,(#520,#521,#522,#523,#524,#525,#526,#527,#528,#529,#530,#531,#532,#533,#534),.UNSPECIFIED.,.F.,.U.,(6,3,3,3,6),(48.2145980686,55.47953108,62.7444640914,70.0093971028,77.2743301143),.UNSPECIFIED.) ;
#540=B_SPLINE_CURVE_WITH_KNOTS('',5,(#541,#542,#543,#544,#545,#546,#547,#548,#549,#550,#551,#552,#553,#554,#555),.UNSPECIFIED.,.F.,.U.,(6,3,3,3,6),(77.2743301143,84.5392631257,91.8041961371,99.0691291485,106.33406216),.UNSPECIFIED.) ;
#746=B_SPLINE_CURVE_WITH_KNOTS('',5,(#747,#748,#749,#750,#751,#752,#753,#754,#755),.UNSPECIFIED.,.F.,.U.,(6,3,6),(0.,5.95149408656,10.0131173622),.UNSPECIFIED.) ;
#760=B_SPLINE_CURVE_WITH_KNOTS('',5,(#761,#762,#763,#764,#765,#766,#767,#768,#769),.UNSPECIFIED.,.F.,.U.,(6,3,6),(0.,5.95149408656,10.0131173622),.UNSPECIFIED.) ;
#780=B_SPLINE_CURVE_WITH_KNOTS('',5,(#781,#782,#783,#784,#785,#786,#787,#788,#789),.UNSPECIFIED.,.F.,.U.,(6,3,6),(0.,5.95149408656,10.0131173622),.UNSPECIFIED.) ;
#798=B_SPLINE_CURVE_WITH_KNOTS('',5,(#799,#800,#801,#802,#803,#804,#805,#806,#807),.UNSPECIFIED.,.F.,.U.,(6,3,6),(0.,5.95149408656,10.0131173622),.UNSPECIFIED.) ;
#954=B_SPLINE_CURVE_WITH_KNOTS('',5,(#955,#956,#957,#958,#959,#960,#961,#962,#963,#964,#965,#966),.UNSPECIFIED.,.F.,.U.,(6,3,3,6),(0.,5.74860657859,8.04816437141,11.4111168113),.UNSPECIFIED.) ;
#22=MANIFOLD_SOLID_BREP('NOCUT',#31) ;
#593=MANIFOLD_SOLID_BREP('CUT',#602) ;
#49=CIRCLE('generated circle',#48,12.5) ;
#63=CIRCLE('generated circle',#62,11.5) ;
#75=CIRCLE('generated circle',#74,12.5) ;
#80=CIRCLE('generated circle',#79,11.5) ;
#104=CIRCLE('generated circle',#103,12.5) ;
#123=CIRCLE('generated circle',#122,12.5) ;
#147=CIRCLE('generated circle',#146,12.15) ;
#166=CIRCLE('generated circle',#165,12.15) ;
#190=CIRCLE('generated circle',#189,12.15) ;
#209=CIRCLE('generated circle',#208,12.15) ;
#226=CIRCLE('generated circle',#225,0.8) ;
#233=CIRCLE('generated circle',#232,13.2236161147) ;
#240=CIRCLE('generated circle',#239,0.8) ;
#252=CIRCLE('generated circle',#251,13.2236161147) ;
#276=CIRCLE('generated circle',#275,14.0526786814) ;
#295=CIRCLE('generated circle',#294,14.0526786814) ;
#321=CIRCLE('generated circle',#320,16.) ;
#335=CIRCLE('generated circle',#334,15.7) ;
#347=CIRCLE('generated circle',#346,16.) ;
#352=CIRCLE('generated circle',#351,15.7) ;
#376=CIRCLE('generated circle',#375,16.) ;
#395=CIRCLE('generated circle',#394,16.) ;
#419=CIRCLE('generated circle',#418,9.64317919521) ;
#438=CIRCLE('generated circle',#437,9.64317919521) ;
#455=CIRCLE('generated circle',#454,5.) ;
#462=CIRCLE('generated circle',#461,9.25) ;
#469=CIRCLE('generated circle',#468,5.) ;
#481=CIRCLE('generated circle',#480,9.25) ;
#611=CIRCLE('generated circle',#610,0.0956184253722) ;
#627=CIRCLE('generated circle',#626,0.234265144455) ;
#646=CIRCLE('generated circle',#645,0.0956184253722) ;
#651=CIRCLE('generated circle',#650,0.234265144455) ;
#668=CIRCLE('generated circle',#667,3.60829785788) ;
#675=CIRCLE('generated circle',#674,0.626993757462) ;
#682=CIRCLE('generated circle',#681,3.60829785788) ;
#694=CIRCLE('generated circle',#693,0.626993757462) ;
#718=CIRCLE('generated circle',#717,4.39951510392) ;
#737=CIRCLE('generated circle',#736,4.39951510392) ;
#776=CIRCLE('generated circle',#775,9.50001502887) ;
#815=CIRCLE('generated circle',#814,9.50001502887) ;
#839=CIRCLE('generated circle',#838,9.5) ;
#858=CIRCLE('generated circle',#857,9.5) ;
#882=CIRCLE('generated circle',#881,9.31999999999) ;
#901=CIRCLE('generated circle',#900,9.31999999999) ;
#982=CIRCLE('generated circle',#981,3.60829785788) ;
#23=COLOUR_RGB('Colour',0.501960784314,0.501960784314,0.501960784314) ;
#594=COLOUR_RGB('Colour',0.8,0.8,0.8) ;
#36=CONICAL_SURFACE('Cone',#35,11.5,0.785398163397) ;
#136=CONICAL_SURFACE('Cone',#135,12.15,0.349065850399) ;
#265=CONICAL_SURFACE('Cone',#264,13.2236161147,1.2217304764) ;
#308=CONICAL_SURFACE('Cone',#307,15.7,0.785398163397) ;
#408=CONICAL_SURFACE('Cone',#407,9.64317919521,0.399220769575) ;
#607=CONICAL_SURFACE('Cone',#606,0.0956184253722,1.46787845149) ;
#707=CONICAL_SURFACE('Cone',#706,0.626993757446,1.34454108256) ;
#871=CONICAL_SURFACE('Cone',#870,9.31999999999,0.44174283368) ;
#1016=CONSTRUCTIVE_GEOMETRY_REPRESENTATION('supplemental geometry',(#1015,#1021,#1025,#1029),#17) ;
#1017=CONSTRUCTIVE_GEOMETRY_REPRESENTATION_RELATIONSHIP('supplemental geometry','',#20,#1016) ;
#93=CYLINDRICAL_SURFACE('generated cylinder',#92,12.5) ;
#179=CYLINDRICAL_SURFACE('generated cylinder',#178,12.15) ;
#365=CYLINDRICAL_SURFACE('generated cylinder',#364,16.) ;
#566=CYLINDRICAL_SURFACE('generated cylinder',#565,9.25) ;
#828=CYLINDRICAL_SURFACE('generated cylinder',#827,9.5) ;
#664=DEGENERATE_TOROIDAL_SURFACE('homeo Torus',#663,1.39574332641,3.60829785788,.T.) ;
#222=TOROIDAL_SURFACE('homeo Torus',#221,12.95,0.8) ;
#451=TOROIDAL_SURFACE('homeo Torus',#450,14.25,5.) ;
#1005=DRAUGHTING_PRE_DEFINED_COLOUR('blue') ;
#1004=DRAUGHTING_PRE_DEFINED_CURVE_FONT('continuous') ;
#45=EDGE_CURVE('',#42,#44,#40,.T.) ;
#52=EDGE_CURVE('',#51,#44,#49,.T.) ;
#59=EDGE_CURVE('',#58,#51,#56,.T.) ;
#64=EDGE_CURVE('',#58,#42,#63,.T.) ;
#76=EDGE_CURVE('',#44,#51,#75,.T.) ;
#81=EDGE_CURVE('',#42,#58,#80,.T.) ;
#100=EDGE_CURVE('',#44,#99,#97,.T.) ;
#107=EDGE_CURVE('',#106,#99,#104,.T.) ;
#112=EDGE_CURVE('',#51,#106,#111,.T.) ;
#124=EDGE_CURVE('',#99,#106,#123,.T.) ;
#143=EDGE_CURVE('',#99,#142,#140,.F.) ;
#150=EDGE_CURVE('',#149,#142,#147,.F.) ;
#155=EDGE_CURVE('',#106,#149,#154,.F.) ;
#167=EDGE_CURVE('',#142,#149,#166,.F.) ;
#186=EDGE_CURVE('',#142,#185,#183,.T.) ;
#193=EDGE_CURVE('',#192,#185,#190,.T.) ;
#198=EDGE_CURVE('',#149,#192,#197,.T.) ;
#210=EDGE_CURVE('',#185,#192,#209,.T.) ;
#229=EDGE_CURVE('',#185,#228,#226,.F.) ;
#236=EDGE_CURVE('',#235,#228,#233,.T.) ;
#241=EDGE_CURVE('',#192,#235,#240,.F.) ;
#253=EDGE_CURVE('',#228,#235,#252,.T.) ;
#272=EDGE_CURVE('',#228,#271,#269,.T.) ;
#279=EDGE_CURVE('',#278,#271,#276,.F.) ;
#284=EDGE_CURVE('',#235,#278,#283,.T.) ;
#296=EDGE_CURVE('',#271,#278,#295,.F.) ;
#317=EDGE_CURVE('',#314,#316,#312,.T.) ;
#324=EDGE_CURVE('',#323,#316,#321,.T.) ;
#331=EDGE_CURVE('',#330,#323,#328,.T.) ;
#336=EDGE_CURVE('',#330,#314,#335,.T.) ;
#348=EDGE_CURVE('',#316,#323,#347,.T.) ;
#353=EDGE_CURVE('',#314,#330,#352,.T.) ;
#372=EDGE_CURVE('',#316,#371,#369,.T.) ;
#379=EDGE_CURVE('',#378,#371,#376,.T.) ;
#384=EDGE_CURVE('',#323,#378,#383,.T.) ;
#396=EDGE_CURVE('',#371,#378,#395,.T.) ;
#415=EDGE_CURVE('',#371,#414,#412,.F.) ;
#422=EDGE_CURVE('',#421,#414,#419,.F.) ;
#427=EDGE_CURVE('',#378,#421,#426,.F.) ;
#439=EDGE_CURVE('',#414,#421,#438,.F.) ;
#458=EDGE_CURVE('',#414,#457,#455,.F.) ;
#465=EDGE_CURVE('',#464,#457,#462,.T.) ;
#470=EDGE_CURVE('',#421,#464,#469,.F.) ;
#482=EDGE_CURVE('',#457,#464,#481,.T.) ;
#539=EDGE_CURVE('',#536,#538,#519,.F.) ;
#556=EDGE_CURVE('',#538,#536,#540,.F.) ;
#571=EDGE_CURVE('',#536,#457,#570,.F.) ;
#576=EDGE_CURVE('',#538,#464,#575,.F.) ;
#616=EDGE_CURVE('',#613,#615,#611,.F.) ;
#623=EDGE_CURVE('',#613,#622,#620,.T.) ;
#630=EDGE_CURVE('',#622,#629,#627,.F.) ;
#635=EDGE_CURVE('',#615,#629,#634,.T.) ;
#647=EDGE_CURVE('',#615,#613,#646,.F.) ;
#652=EDGE_CURVE('',#629,#622,#651,.F.) ;
#671=EDGE_CURVE('',#622,#670,#668,.T.) ;
#678=EDGE_CURVE('',#670,#677,#675,.T.) ;
#683=EDGE_CURVE('',#629,#677,#682,.T.) ;
#695=EDGE_CURVE('',#677,#670,#694,.T.) ;
#714=EDGE_CURVE('',#670,#713,#711,.T.) ;
#721=EDGE_CURVE('',#713,#720,#718,.F.) ;
#726=EDGE_CURVE('',#677,#720,#725,.T.) ;
#738=EDGE_CURVE('',#720,#713,#737,.F.) ;
#772=EDGE_CURVE('',#713,#771,#760,.F.) ;
#779=EDGE_CURVE('',#771,#778,#776,.T.) ;
#790=EDGE_CURVE('',#720,#778,#780,.F.) ;
#816=EDGE_CURVE('',#778,#771,#815,.T.) ;
#835=EDGE_CURVE('',#771,#834,#832,.F.) ;
#842=EDGE_CURVE('',#834,#841,#839,.T.) ;
#847=EDGE_CURVE('',#778,#841,#846,.F.) ;
#859=EDGE_CURVE('',#841,#834,#858,.T.) ;
#878=EDGE_CURVE('',#834,#877,#875,.F.) ;
#885=EDGE_CURVE('',#877,#884,#882,.T.) ;
#890=EDGE_CURVE('',#841,#884,#889,.F.) ;
#902=EDGE_CURVE('',#884,#877,#901,.T.) ;
#65=EDGE_LOOP('',(#66,#67,#68,#69)) ;
#82=EDGE_LOOP('',(#83,#84,#85,#86)) ;
#113=EDGE_LOOP('',(#114,#115,#116,#117)) ;
#125=EDGE_LOOP('',(#126,#127,#128,#129)) ;
#156=EDGE_LOOP('',(#157,#158,#159,#160)) ;
#168=EDGE_LOOP('',(#169,#170,#171,#172)) ;
#199=EDGE_LOOP('',(#200,#201,#202,#203)) ;
#211=EDGE_LOOP('',(#212,#213,#214,#215)) ;
#242=EDGE_LOOP('',(#243,#244,#245,#246)) ;
#254=EDGE_LOOP('',(#255,#256,#257,#258)) ;
#285=EDGE_LOOP('',(#286,#287,#288,#289)) ;
#297=EDGE_LOOP('',(#298,#299,#300,#301)) ;
#337=EDGE_LOOP('',(#338,#339,#340,#341)) ;
#354=EDGE_LOOP('',(#355,#356,#357,#358)) ;
#385=EDGE_LOOP('',(#386,#387,#388,#389)) ;
#397=EDGE_LOOP('',(#398,#399,#400,#401)) ;
#428=EDGE_LOOP('',(#429,#430,#431,#432)) ;
#440=EDGE_LOOP('',(#441,#442,#443,#444)) ;
#471=EDGE_LOOP('',(#472,#473,#474,#475)) ;
#483=EDGE_LOOP('',(#484,#485,#486,#487)) ;
#495=EDGE_LOOP('',(#496,#497)) ;
#505=EDGE_LOOP('',(#506,#507)) ;
#509=EDGE_LOOP('',(#510,#511)) ;
#557=EDGE_LOOP('',(#558,#559)) ;
#577=EDGE_LOOP('',(#578,#579,#580,#581)) ;
#584=EDGE_LOOP('',(#585,#586,#587,#588)) ;
#636=EDGE_LOOP('',(#637,#638,#639,#640)) ;
#653=EDGE_LOOP('',(#654,#655,#656,#657)) ;
#684=EDGE_LOOP('',(#685,#686,#687,#688)) ;
#696=EDGE_LOOP('',(#697,#698,#699,#700)) ;
#727=EDGE_LOOP('',(#728,#729,#730,#731)) ;
#739=EDGE_LOOP('',(#740,#741,#742,#743)) ;
#791=EDGE_LOOP('',(#792,#793,#794,#795)) ;
#817=EDGE_LOOP('',(#818,#819,#820,#821)) ;
#848=EDGE_LOOP('',(#849,#850,#851,#852)) ;
#860=EDGE_LOOP('',(#861,#862,#863,#864)) ;
#891=EDGE_LOOP('',(#892,#893,#894,#895)) ;
#903=EDGE_LOOP('',(#904,#905,#906,#907)) ;
#915=EDGE_LOOP('',(#916,#917)) ;
#925=EDGE_LOOP('',(#926,#927)) ;
#70=FACE_OUTER_BOUND('',#65,.T.) ;
#87=FACE_OUTER_BOUND('',#82,.T.) ;
#118=FACE_OUTER_BOUND('',#113,.T.) ;
#130=FACE_OUTER_BOUND('',#125,.T.) ;
#161=FACE_OUTER_BOUND('',#156,.T.) ;
#173=FACE_OUTER_BOUND('',#168,.T.) ;
#204=FACE_OUTER_BOUND('',#199,.T.) ;
#216=FACE_OUTER_BOUND('',#211,.T.) ;
#247=FACE_OUTER_BOUND('',#242,.T.) ;
#259=FACE_OUTER_BOUND('',#254,.T.) ;
#290=FACE_OUTER_BOUND('',#285,.T.) ;
#302=FACE_OUTER_BOUND('',#297,.T.) ;
#342=FACE_OUTER_BOUND('',#337,.T.) ;
#359=FACE_OUTER_BOUND('',#354,.T.) ;
#390=FACE_OUTER_BOUND('',#385,.T.) ;
#402=FACE_OUTER_BOUND('',#397,.T.) ;
#433=FACE_OUTER_BOUND('',#428,.T.) ;
#445=FACE_OUTER_BOUND('',#440,.T.) ;
#476=FACE_OUTER_BOUND('',#471,.T.) ;
#488=FACE_OUTER_BOUND('',#483,.T.) ;
#498=FACE_OUTER_BOUND('',#495,.T.) ;
#508=FACE_OUTER_BOUND('',#505,.T.) ;
#560=FACE_OUTER_BOUND('',#557,.T.) ;
#582=FACE_OUTER_BOUND('',#577,.T.) ;
#589=FACE_OUTER_BOUND('',#584,.T.) ;
#641=FACE_OUTER_BOUND('',#636,.T.) ;
#658=FACE_OUTER_BOUND('',#653,.T.) ;
#689=FACE_OUTER_BOUND('',#684,.T.) ;
#701=FACE_OUTER_BOUND('',#696,.T.) ;
#732=FACE_OUTER_BOUND('',#727,.T.) ;
#744=FACE_OUTER_BOUND('',#739,.T.) ;
#796=FACE_OUTER_BOUND('',#791,.T.) ;
#822=FACE_OUTER_BOUND('',#817,.T.) ;
#853=FACE_OUTER_BOUND('',#848,.T.) ;
#865=FACE_OUTER_BOUND('',#860,.T.) ;
#896=FACE_OUTER_BOUND('',#891,.T.) ;
#908=FACE_OUTER_BOUND('',#903,.T.) ;
#918=FACE_OUTER_BOUND('',#915,.T.) ;
#928=FACE_OUTER_BOUND('',#925,.T.) ;
#1010=GEOMETRIC_SET('NONE',(#1003)) ;
#1009=GEOMETRICALLY_BOUNDED_SURFACE_SHAPE_REPRESENTATION('NONE',(#1010),#17) ;
#40=LINE('Line',#37,#39) ;
#56=LINE('Line',#53,#55) ;
#97=LINE('Line',#94,#96) ;
#111=LINE('Line',#108,#110) ;
#140=LINE('Line',#137,#139) ;
#154=LINE('Line',#151,#153) ;
#183=LINE('Line',#180,#182) ;
#197=LINE('Line',#194,#196) ;
#269=LINE('Line',#266,#268) ;
#283=LINE('Line',#280,#282) ;
#312=LINE('Line',#309,#311) ;
#328=LINE('Line',#325,#327) ;
#369=LINE('Line',#366,#368) ;
#383=LINE('Line',#380,#382) ;
#412=LINE('Line',#409,#411) ;
#426=LINE('Line',#423,#425) ;
#570=LINE('Line',#567,#569) ;
#575=LINE('Line',#572,#574) ;
#620=LINE('Line',#617,#619) ;
#634=LINE('Line',#631,#633) ;
#711=LINE('Line',#708,#710) ;
#725=LINE('Line',#722,#724) ;
#832=LINE('Line',#829,#831) ;
#846=LINE('Line',#843,#845) ;
#875=LINE('Line',#872,#874) ;
#889=LINE('Line',#886,#888) ;
#933=LINE('Line',#930,#932) ;
#941=LINE('Line',#938,#940) ;
#949=LINE('Line',#946,#948) ;
#974=LINE('Line',#971,#973) ;
#990=LINE('Line',#987,#989) ;
#998=LINE('Line',#995,#997) ;
#936=TRIMMED_CURVE('',#933,(#934),(#935),.T.,.CARTESIAN.) ;
#944=TRIMMED_CURVE('',#941,(#942),(#943),.T.,.CARTESIAN.) ;
#952=TRIMMED_CURVE('',#949,(#950),(#951),.T.,.CARTESIAN.) ;
#969=TRIMMED_CURVE('',#954,(#967),(#968),.T.,.CARTESIAN.) ;
#977=TRIMMED_CURVE('',#974,(#975),(#976),.F.,.CARTESIAN.) ;
#985=TRIMMED_CURVE('',#982,(#983),(#984),.F.,.CARTESIAN.) ;
#993=TRIMMED_CURVE('',#990,(#991),(#992),.F.,.CARTESIAN.) ;
#1001=TRIMMED_CURVE('',#998,(#999),(#1000),.F.,.CARTESIAN.) ;
#494=PLANE('',#493) ;
#504=PLANE('',#503) ;
#518=PLANE('',#517) ;
#914=PLANE('',#913) ;
#924=PLANE('',#923) ;
#14=PLANE_ANGLE_MEASURE_WITH_UNIT(PLANE_ANGLE_MEASURE(0.0174532925199),#13) ;
#9=PRODUCT_CATEGORY_RELATIONSHIP(' ',' ',#7,#8) ;
#6=PRODUCT_DEFINITION_FORMATION_WITH_SPECIFIED_SOURCE('',' ',#5,.NOT_KNOWN.) ;
#21=SHAPE_DEFINITION_REPRESENTATION(#11,#20) ;
#759=SURFACE_OF_REVOLUTION('Surface of Revolution',#746,#758) ;
#811=SURFACE_OF_REVOLUTION('Surface of Revolution',#798,#810) ;
#42=VERTEX_POINT('',#41) ;
#44=VERTEX_POINT('',#43) ;
#51=VERTEX_POINT('',#50) ;
#58=VERTEX_POINT('',#57) ;
#99=VERTEX_POINT('',#98) ;
#106=VERTEX_POINT('',#105) ;
#142=VERTEX_POINT('',#141) ;
#149=VERTEX_POINT('',#148) ;
#185=VERTEX_POINT('',#184) ;
#192=VERTEX_POINT('',#191) ;
#228=VERTEX_POINT('',#227) ;
#235=VERTEX_POINT('',#234) ;
#271=VERTEX_POINT('',#270) ;
#278=VERTEX_POINT('',#277) ;
#314=VERTEX_POINT('',#313) ;
#316=VERTEX_POINT('',#315) ;
#323=VERTEX_POINT('',#322) ;
#330=VERTEX_POINT('',#329) ;
#371=VERTEX_POINT('',#370) ;
#378=VERTEX_POINT('',#377) ;
#414=VERTEX_POINT('',#413) ;
#421=VERTEX_POINT('',#420) ;
#457=VERTEX_POINT('',#456) ;
#464=VERTEX_POINT('',#463) ;
#536=VERTEX_POINT('',#535) ;
#538=VERTEX_POINT('',#537) ;
#613=VERTEX_POINT('',#612) ;
#615=VERTEX_POINT('',#614) ;
#622=VERTEX_POINT('',#621) ;
#629=VERTEX_POINT('',#628) ;
#670=VERTEX_POINT('',#669) ;
#677=VERTEX_POINT('',#676) ;
#713=VERTEX_POINT('',#712) ;
#720=VERTEX_POINT('',#719) ;
#771=VERTEX_POINT('',#770) ;
#778=VERTEX_POINT('',#777) ;
#834=VERTEX_POINT('',#833) ;
#841=VERTEX_POINT('',#840) ;
#877=VERTEX_POINT('',#876) ;
#884=VERTEX_POINT('',#883) ;
#12=(LENGTH_UNIT()NAMED_UNIT(*)SI_UNIT(.MILLI.,.METRE.)) ;
#13=(NAMED_UNIT(*)PLANE_ANGLE_UNIT()SI_UNIT($,.RADIAN.)) ;
#15=(NAMED_UNIT(*)SI_UNIT($,.STERADIAN.)SOLID_ANGLE_UNIT()) ;
#17=(GEOMETRIC_REPRESENTATION_CONTEXT(3)GLOBAL_UNCERTAINTY_ASSIGNED_CONTEXT((#16))GLOBAL_UNIT_ASSIGNED_CONTEXT((#12,#13,#15))REPRESENTATION_CONTEXT(' ',' ')) ;
ENDSEC;
END-ISO-10303-21;
 